<svg xmlns="http://www.w3.org/2000/svg" width="430" height="430" style="width:100%;height:100%;transform:translate3d(0,0,0);content-visibility:visible" viewBox="0 0 430 430"><defs><filter id="a" width="100%" height="100%" x="0%" y="0%" filterUnits="objectBoundingBox"><feComponentTransfer in="SourceGraphic"><feFuncA tableValues="1.0 0.0" type="table"/></feComponentTransfer></filter><filter id="c" width="100%" height="100%" x="0%" y="0%" filterUnits="objectBoundingBox"><feComponentTransfer in="SourceGraphic"><feFuncA tableValues="1.0 0.0" type="table"/></feComponentTransfer></filter><filter id="e" width="100%" height="100%" x="0%" y="0%" filterUnits="objectBoundingBox"><feComponentTransfer in="SourceGraphic"><feFuncA tableValues="1.0 0.0" type="table"/></feComponentTransfer></filter><filter id="g" width="100%" height="100%" x="0%" y="0%" filterUnits="objectBoundingBox"><feComponentTransfer in="SourceGraphic"><feFuncA tableValues="1.0 0.0" type="table"/></feComponentTransfer></filter><path id="b" fill="#FFC738" d="M10.607-104.488h-21.214a6.053 6.053 0 0 0-6.053 6.053l.394 173.163c0 .286.04.566.116.83.396 1.379 1.853 2.173 3.275 1.982l27.333-3.669a3 3 0 0 0 2.596-2.973L16.66-98.435a6.053 6.053 0 0 0-6.053-6.053z" class="primary" style="display:block" transform="rotate(-11 940.875 -787.654)"/><path id="d" fill="#FFC738" d="M10.607-107.069h-21.214a6.053 6.053 0 0 0-6.053 6.053v5.779l1.249 159.077v1.948a6.053 6.053 0 0 0 6.053 6.053h21.215a6.052 6.052 0 0 0 6.052-6.053v-5.779L16.66-99.067v-1.949a6.053 6.053 0 0 0-6.053-6.053z" class="primary" style="display:block" transform="rotate(-2 5770.386 -5929.036)"/><path id="f" fill="#FFC738" d="M10.607-107.069h-21.214a6.053 6.053 0 0 0-6.053 6.053v5.779l.004 155.304v1.949a6.053 6.053 0 0 0 6.053 6.053h21.214a6.053 6.053 0 0 0 6.053-6.053v-5.779L16.66-99.067v-1.949a6.053 6.053 0 0 0-6.053-6.053z" class="primary" style="display:block" transform="translate(248.094 162.212)"/><path id="h" fill="#FFC738" d="M10.811-131.782h-21.215a6.053 6.053 0 0 0-6.053 6.053l.18 171.499c0 .286.041.565.117.829.396 1.379 1.853 2.174 3.275 1.983l27.332-3.67a3 3 0 0 0 2.596-2.972l-.18-167.669a6.052 6.052 0 0 0-6.052-6.053z" class="primary" style="display:block" transform="rotate(8 -1329.896 2138.85)"/><mask id="n" mask-type="alpha"><g filter="url(#a)"><path fill="#fff" d="M0 0h430v430H0z" opacity="0"/><use xmlns:ns1="http://www.w3.org/1999/xlink" ns1:href="#b"/></g></mask><mask id="m" mask-type="alpha"><g filter="url(#c)"><path fill="#fff" d="M0 0h430v430H0z" opacity="0"/><use xmlns:ns2="http://www.w3.org/1999/xlink" ns2:href="#d"/></g></mask><mask id="l" mask-type="alpha"><g filter="url(#e)"><path fill="#fff" d="M0 0h430v430H0z" opacity="0"/><use xmlns:ns3="http://www.w3.org/1999/xlink" ns3:href="#f"/></g></mask><mask id="k" mask-type="alpha"><g filter="url(#g)"><path fill="#fff" d="M0 0h430v430H0z" opacity="0"/><use xmlns:ns4="http://www.w3.org/1999/xlink" ns4:href="#h"/></g></mask><clipPath id="i"><path d="M0 0h430v430H0z"/></clipPath><clipPath id="j"><path d="M0 0h430v430H0z"/></clipPath></defs><g clip-path="url(#i)"><g clip-path="url(#j)" style="display:block"><path fill="#FFC638" d="M10.811-131.782h-21.215a6.053 6.053 0 0 0-6.053 6.053l.18 171.499c0 .286.041.565.117.829.396 1.379 1.853 2.174 3.275 1.983l27.332-3.67a3 3 0 0 0 2.596-2.972l-.18-167.669a6.052 6.052 0 0 0-6.052-6.053z" class="secondary" style="display:block" transform="rotate(8 -1320.641 2030.244)"/><g mask="url(#k)" opacity=".5" style="mix-blend-mode:multiply;display:block"><path fill="#FFC638" d="m298.75 74.561-21.01-2.952a6.053 6.053 0 0 0-6.836 5.151l-23.69 169.855c-.04.283-.038.565 0 .837.201 1.421 1.533 2.411 2.968 2.42l27.577.17a3 3 0 0 0 2.984-2.582L303.9 81.397a6.052 6.052 0 0 0-5.15-6.836z" class="secondary" opacity="1"/></g><path fill="none" stroke="#121330" stroke-linecap="round" stroke-linejoin="round" stroke-width="7" d="m65.498 35.22-33-4.645 24.575-174.601 33.001 4.645L65.498 35.22z" class="primary" style="display:block" transform="translate(215 215)"/><path fill="#FFC638" d="M10.607-107.069h-21.214a6.053 6.053 0 0 0-6.053 6.053v5.779l.004 155.304v1.949a6.053 6.053 0 0 0 6.053 6.053h21.214a6.053 6.053 0 0 0 6.053-6.053v-5.779L16.66-99.067v-1.949a6.053 6.053 0 0 0-6.053-6.053z" class="secondary" style="display:block" transform="translate(233.094 162.27)"/><g mask="url(#l)" opacity=".5" style="mix-blend-mode:multiply;display:block"><path fill="#FFC638" d="M243.701 55.201h-21.214a6.053 6.053 0 0 0-6.053 6.053v5.779l.004 155.304v1.949a6.053 6.053 0 0 0 6.053 6.053h21.214a6.053 6.053 0 0 0 6.053-6.053v-5.779l-.004-155.304v-1.949a6.053 6.053 0 0 0-6.053-6.053z" class="secondary" opacity="1"/></g><path fill="none" stroke="#121330" stroke-linecap="round" stroke-linejoin="round" stroke-width="7" d="M34.502 16.203H1.176v-176.322h33.326V16.203z" class="primary" style="display:block" transform="translate(215 215)"/><path fill="#FFC638" d="M10.607-107.069h-21.214a6.053 6.053 0 0 0-6.053 6.053v5.779l1.249 159.077v1.948a6.053 6.053 0 0 0 6.053 6.053h21.215a6.052 6.052 0 0 0 6.052-6.053v-5.779L16.66-99.067v-1.949a6.053 6.053 0 0 0-6.053-6.053z" class="secondary" style="display:block" transform="rotate(-2 5759.564 -5499.448)"/><g mask="url(#m)" opacity=".5" style="mix-blend-mode:multiply;display:block"><path fill="#FFC638" d="m202.3 90.282-21.2.74a6.053 6.053 0 0 0-5.839 6.26l.202 5.776 6.8 158.937.068 1.947a6.053 6.053 0 0 0 6.26 5.838l21.202-.74a6.052 6.052 0 0 0 5.838-6.261l-.202-5.776-6.8-158.935-.068-1.948a6.053 6.053 0 0 0-6.26-5.838z" class="secondary" opacity="1"/></g><path fill="none" stroke="#121330" stroke-linecap="round" stroke-linejoin="round" stroke-width="7" d="m.052 52.092-33.302 1.264-6.686-176.196 33.302-1.263L.052 52.092z" class="primary" style="display:block" transform="translate(215 215)"/><path fill="#FFC638" d="M10.607-104.488h-21.214a6.053 6.053 0 0 0-6.053 6.053l.394 173.163c0 .286.04.566.116.83.396 1.379 1.853 2.173 3.275 1.982l27.333-3.669a3 3 0 0 0 2.596-2.973L16.66-98.435a6.053 6.053 0 0 0-6.053-6.053z" class="secondary" style="display:block" transform="rotate(-11 948.703 -705.667)"/><g mask="url(#n)" opacity=".5" style="mix-blend-mode:multiply;display:block"><path fill="#FFC638" d="m142.553 63.464-20.824 4.048a6.053 6.053 0 0 0-4.787 7.096l33.428 169.907c.054.28.147.548.272.792.652 1.278 2.233 1.78 3.593 1.321l26.13-8.817a3 3 0 0 0 1.982-3.414L149.65 68.251a6.053 6.053 0 0 0-7.097-4.787z" class="secondary" opacity="1"/></g><path fill="none" stroke="#121330" stroke-linecap="round" stroke-linejoin="round" stroke-width="7" d="m-29.739 20.445-32.632 6.767-35.803-172.649 32.631-6.767 35.804 172.649z" class="primary" style="display:block" transform="translate(214 215)"/><g fill="#F14B00" style="display:block"><path d="m315.349 171.147-16.147 200.398c-.169 2.094-2.375 3.367-4.275 2.469-13.822-6.536-42.05-17.524-79.927-17.524-13.466 0-45.867 1.389-79.928 17.523-1.896.898-4.106-.372-4.274-2.463-5.376-66.798-10.761-133.605-16.147-200.403a3 3 0 0 1 2.99-3.241h36.411c-.011.183-.011.355-.011.538 0 29.849 27.286 54.043 60.959 54.043s60.958-24.194 60.958-54.043c0-.183.001-.355-.01-.538h36.411a3 3 0 0 1 2.99 3.241z" class="tertiary"/><path d="M50.179 85.379c-13.464 0-45.868 1.391-79.928 17.529-1.896.898-4.106-.371-4.274-2.463C-39.399 33.646-44.784-33.161-50.169-99.96a3 3 0 0 1 2.99-3.241h18.058c-.1 21.77 1.69 187.52 79.3 188.58z" class="tertiary" opacity=".5" style="mix-blend-mode:multiply" transform="translate(164.821 271.105)"/></g><g fill="none" stroke="#121330" stroke-linecap="round" stroke-linejoin="round" stroke-width="7" style="display:block"><path d="M159.33 326.941c15.52-3.63 34.32-6.44 55.67-6.44 21.89 0 41.09 2.95 56.83 6.72" class="primary"/><path stroke-opacity=".5" d="M-55.67 111.941c15.52-3.63 34.32-6.44 55.67-6.44 21.89 0 41.09 2.95 56.83 6.72" class="primary" style="mix-blend-mode:multiply" transform="translate(215 215)"/></g><path fill="none" stroke="#121330" stroke-linecap="round" stroke-linejoin="round" stroke-width="7" d="M100.61-47.908 83.849 160.12C72.011 154.131 41.914 140.677 0 140.677c-13.982 0-48.377 1.497-83.849 19.443-5.58-69.339-11.17-138.689-16.761-208.028h39.662c-.011.183-.01.356-.01.539C-60.958-17.52-33.673 6.674 0 6.674S60.958-17.52 60.958-47.369c0-.183.001-.356-.01-.539h39.662z" class="primary" style="display:block" transform="translate(215 215)"/></g></g></svg>